<svg xmlns="http://www.w3.org/2000/svg" xmlns:xlink="http://www.w3.org/1999/xlink" width="0" height="0" style="display:none;"><symbol viewBox="0 0 1024 1024" id="svgtofont-4fe9e2c2265bf0a6f0b37172419e2c51"><path fill="#8198AA" d="M128 0A128 128 0 0 0 0 128v768a128 128 0 0 0 128 128h768a128 128 0 0 0 128-128V128A128 128 0 0 0 896 0zm840 288a96 96 0 0 1-95.04 96L744.64 609.216a96 96 0 1 1-151.936 8.704L470.272 451.2a95.9 95.9 0 0 1-46.976 3.456L260.224 644.864a32.2 32.2 0 0 1-6.656 5.888 96 96 0 1 1-35.456-55.04l148.672-173.44a96 96 0 1 1 153.984-10.368L644.224 580.16a96 96 0 0 1 44.736-2.56l122.496-215.04A96 96 0 1 1 968 288"></path></symbol></svg>